<svg width="128" height="128" viewBox="0 0 128 128" fill="none" xmlns="http://www.w3.org/2000/svg">
<rect width="128" height="128" stroke="white"/>
<path d="M16 37.3332C16 40.1621 17.1238 42.8753 19.1242 44.8756C21.1246 46.876 23.8377 47.9998 26.6667 47.9998C29.4956 47.9998 32.2088 46.876 34.2091 44.8756C36.2095 42.8753 37.3333 40.1621 37.3333 37.3332C37.3333 34.5042 36.2095 31.7911 34.2091 29.7907C32.2088 27.7903 29.4956 26.6665 26.6667 26.6665C23.8377 26.6665 21.1246 27.7903 19.1242 29.7907C17.1238 31.7911 16 34.5042 16 37.3332Z" stroke="white" stroke-width="4" stroke-linecap="round" stroke-linejoin="round"/>
<path d="M74.6667 80.0002C74.6667 82.8291 75.7905 85.5422 77.7909 87.5426C79.7913 89.543 82.5044 90.6668 85.3334 90.6668C88.1623 90.6668 90.8754 89.543 92.8758 87.5426C94.8762 85.5422 96 82.8291 96 80.0002C96 77.1712 94.8762 74.4581 92.8758 72.4577C90.8754 70.4573 88.1623 69.3335 85.3334 69.3335C82.5044 69.3335 79.7913 70.4573 77.7909 72.4577C75.7905 74.4581 74.6667 77.1712 74.6667 80.0002Z" stroke="white" stroke-width="4" stroke-linecap="round" stroke-linejoin="round"/>
<path d="M80 32C80 36.2435 81.6857 40.3131 84.6863 43.3137C87.6869 46.3143 91.7565 48 96 48C100.243 48 104.313 46.3143 107.314 43.3137C110.314 40.3131 112 36.2435 112 32C112 27.7565 110.314 23.6869 107.314 20.6863C104.313 17.6857 100.243 16 96 16C91.7565 16 87.6869 17.6857 84.6863 20.6863C81.6857 23.6869 80 27.7565 80 32Z" stroke="white" stroke-width="4" stroke-linecap="round" stroke-linejoin="round"/>
<path d="M16 96C16 100.243 17.6857 104.313 20.6863 107.314C23.6869 110.314 27.7565 112 32 112C36.2435 112 40.3131 110.314 43.3137 107.314C46.3143 104.313 48 100.243 48 96C48 91.7565 46.3143 87.6869 43.3137 84.6863C40.3131 81.6857 36.2435 80 32 80C27.7565 80 23.6869 81.6857 20.6863 84.6863C17.6857 87.6869 16 91.7565 16 96Z" stroke="white" stroke-width="4" stroke-linecap="round" stroke-linejoin="round"/>
<path d="M48 90.6665L74.6667 82.6665" stroke="white" stroke-width="4" stroke-linecap="round" stroke-linejoin="round"/>
<path d="M34.6667 45.3335L76.32 73.9735" stroke="white" stroke-width="4" stroke-linecap="round" stroke-linejoin="round"/>
<path d="M37.3333 37.3333L80 32" stroke="white" stroke-width="4" stroke-linecap="round" stroke-linejoin="round"/>
</svg>
