<svg width="128" height="128" viewBox="0 0 128 128" fill="none" xmlns="http://www.w3.org/2000/svg">
<path d="M63.9573 112C60.0747 111.984 56.1973 109.643 55.0667 104.976C54.7258 103.569 54.0575 102.263 53.1162 101.163C52.1749 100.063 50.9873 99.2008 49.6499 98.6467C48.3125 98.0926 46.8631 97.8621 45.4198 97.974C43.9765 98.0859 42.58 98.5371 41.344 99.2907C33.1147 104.304 23.6907 94.8853 28.704 86.6507C29.4565 85.4152 29.9069 84.0195 30.0186 82.5772C30.1302 81.1349 29.9 79.6866 29.3465 78.35C28.7931 77.0134 27.9321 75.8263 26.8335 74.8851C25.7349 73.9439 24.4297 73.2752 23.024 72.9333C13.6587 70.6613 13.6587 57.3387 23.024 55.0667C24.4309 54.7258 25.7375 54.0575 26.8373 53.1162C27.9372 52.1749 28.7992 50.9873 29.3533 49.6499C29.9074 48.3125 30.1379 46.8631 30.026 45.4198C29.9141 43.9765 29.4629 42.58 28.7093 41.344C23.696 33.1147 33.1147 23.6907 41.3493 28.704C46.6827 31.9467 53.5947 29.0773 55.0667 23.024C57.3387 13.6587 70.6613 13.6587 72.9333 23.024C73.2742 24.4309 73.9425 25.7375 74.8838 26.8373C75.8251 27.9372 77.0127 28.7992 78.3501 29.3533C79.6875 29.9074 81.1369 30.1379 82.5802 30.026C84.0235 29.9141 85.42 29.4629 86.656 28.7093C94.8853 23.696 104.309 33.1147 99.296 41.3493C98.5435 42.5848 98.0931 43.9805 97.9814 45.4228C97.8698 46.8651 98.1 48.3134 98.6535 49.65C99.2069 50.9866 100.068 52.1738 101.167 53.1149C102.265 54.0561 103.57 54.7248 104.976 55.0667C109.68 56.208 112.016 60.1333 112 64.048" stroke="white" stroke-width="4" stroke-linecap="round" stroke-linejoin="round"/>
<path d="M48 64C48 68.2435 49.6857 72.3131 52.6863 75.3137C55.6869 78.3143 59.7565 80 64 80C68.2435 80 72.3131 78.3143 75.3137 75.3137C78.3143 72.3131 80 68.2435 80 64C80 59.7565 78.3143 55.6869 75.3137 52.6863C72.3131 49.6857 68.2435 48 64 48C59.7565 48 55.6869 49.6857 52.6863 52.6863C49.6857 55.6869 48 59.7565 48 64Z" stroke="white" stroke-width="4" stroke-linecap="round" stroke-linejoin="round"/>
<path d="M101.333 120C102.428 115.473 104.75 111.336 108.043 108.043C111.336 104.75 115.473 102.428 120 101.333C115.473 100.238 111.336 97.9165 108.043 94.6234C104.75 91.3303 102.428 87.1931 101.333 82.6665C100.238 87.1931 97.9167 91.3303 94.6236 94.6234C91.3305 97.9165 87.1933 100.238 82.6667 101.333C87.1933 102.428 91.3305 104.75 94.6236 108.043C97.9167 111.336 100.238 115.473 101.333 120Z" stroke="white" stroke-width="4" stroke-linecap="round" stroke-linejoin="round"/>
</svg>
