<svg width="128" height="128" viewBox="0 0 128 128" fill="none" xmlns="http://www.w3.org/2000/svg">
<path d="M33.0323 68.1292V88.7744C33.0323 89.3219 33.2498 89.847 33.6369 90.2342C34.0241 90.6214 34.5492 90.8389 35.0968 90.8389H80.5161C81.0637 90.8389 81.5888 90.6214 81.976 90.2342C82.3631 89.847 82.5806 89.3219 82.5806 88.7744V68.1292C82.5806 67.5817 82.3631 67.0565 81.976 66.6694C81.5888 66.2822 81.0637 66.0647 80.5161 66.0647H35.0968C34.5492 66.0647 34.0241 66.2822 33.6369 66.6694C33.2498 67.0565 33.0323 67.5817 33.0323 68.1292ZM37.1613 70.1937H78.4516V86.7098H37.1613V70.1937ZM55.7419 61.9356H59.871C60.1427 61.9372 60.412 61.8852 60.6635 61.7824C60.9151 61.6797 61.1439 61.5283 61.3368 61.3369L65.4658 57.2079C65.7104 56.9634 65.8896 56.6613 65.987 56.3294C66.0844 55.9975 66.0968 55.6465 66.0232 55.3086L59.8297 26.4053C59.8297 25.8578 59.6122 25.3327 59.225 24.9455C58.8378 24.5583 58.3127 24.3408 57.7652 24.3408C57.2176 24.3408 56.6925 24.5583 56.3053 24.9455C55.9182 25.3327 55.7006 25.8578 55.7006 26.4053L49.5071 55.3086C49.4335 55.6465 49.4459 55.9975 49.5433 56.3294C49.6407 56.6613 49.8199 56.9634 50.0645 57.2079L54.1935 61.3369C54.3961 61.5385 54.6384 61.6957 54.9049 61.7988C55.1714 61.9018 55.4565 61.9485 55.7419 61.9356ZM57.8064 36.6866L61.7497 55.0815L59.0245 57.8066H56.5884L53.8632 55.0815L57.8064 36.6866Z" fill="white"/>
<path d="M70.1935 74.3228H74.3226V82.5808H70.1935V74.3228ZM61.9355 74.3228H66.0645V82.5808H61.9355V74.3228ZM53.6774 78.4518H57.8064V82.5808H53.6774V78.4518ZM45.4193 74.3228H49.5484V82.5808H45.4193V74.3228Z" fill="white"/>
<path d="M125.936 70.1936H113.548C113.001 70.1936 112.476 70.4111 112.089 70.7982C111.701 71.1854 111.484 71.7105 111.484 72.2581V78.4516H101.161C100.614 78.4516 100.089 78.6691 99.7015 79.0563C99.3143 79.4435 99.0968 79.9686 99.0968 80.5162V86.7097H88.7742C88.2267 86.7097 87.7016 86.9272 87.3144 87.3144C86.9272 87.7016 86.7097 88.2267 86.7097 88.7742V94.9678H76.3871C75.8396 94.9678 75.3145 95.1853 74.9273 95.5724C74.5401 95.9596 74.3226 96.4847 74.3226 97.0323V100.088C67.6005 102.72 60.3478 103.713 53.1656 102.983C45.9834 102.253 39.0787 99.821 33.0239 95.8895C26.9692 91.9579 21.9388 86.6397 18.3499 80.3758C14.761 74.1119 12.7169 67.0827 12.3871 59.871H20.6452V55.742H12.3871C12.8488 45.1293 17.0376 35.0192 24.2168 27.1897L31.5045 34.4981L34.4362 31.5665L27.1278 24.2787C34.9644 17.0635 45.0998 12.8515 55.742 12.3871V20.6452H59.871V12.3871C70.4837 12.8488 80.5938 17.0376 88.4232 24.2168L82.2297 30.4103L85.1613 33.342L91.3549 27.1484C98.5581 34.9827 102.762 45.1096 103.226 55.742H94.9678V59.871H103.226C103.021 64.5611 102.095 69.1918 100.48 73.6L104.361 75.0452C108.29 64.4842 108.501 52.8997 104.96 42.2025C101.42 31.5053 94.339 22.3344 84.8857 16.2024C75.4324 10.0704 64.1714 7.34366 52.9602 8.47193C41.7489 9.6002 31.257 14.5161 23.2152 22.4087C15.1733 30.3014 10.0618 40.6993 8.72371 51.8875C7.38566 63.0757 9.90102 74.3858 15.8549 83.9522C21.8087 93.5187 30.8455 100.77 41.4745 104.51C52.1035 108.251 63.6899 108.256 74.3226 104.526V108.862C63.5393 112.349 51.929 112.334 41.1549 108.818C30.3809 105.302 20.9961 98.4667 14.345 89.2905C7.69389 80.1143 4.11781 69.0684 4.12909 57.7352C4.14036 46.4021 7.73841 35.3634 14.4078 26.2004C21.0771 17.0375 30.4755 10.2206 41.2565 6.7263C52.0375 3.23204 63.6478 3.23974 74.4242 6.74831C85.2005 10.2569 94.5899 17.0863 101.247 26.258C107.904 35.4298 111.488 46.4734 111.484 57.8065C111.479 60.4662 111.285 63.1223 110.906 65.7549L115.035 66.3742C115.444 63.5371 115.638 60.6729 115.613 57.8065C115.613 46.3734 112.223 35.1972 105.871 25.6909C99.5189 16.1847 90.4908 8.77551 79.928 4.40028C69.3653 0.0250471 57.7424 -1.11971 46.529 1.11076C35.3156 3.34124 25.0155 8.84677 16.9311 16.9311C8.84677 25.0155 3.34124 35.3156 1.11076 46.529C-1.11971 57.7424 0.0250471 69.3653 4.40028 79.928C8.77551 90.4908 16.1847 99.5189 25.6909 105.871C35.1972 112.223 46.3734 115.613 57.8065 115.613C63.4024 115.607 68.9672 114.779 74.3226 113.156V125.936C74.3226 126.483 74.5401 127.008 74.9273 127.395C75.3145 127.783 75.8396 128 76.3871 128H125.936C126.483 128 127.008 127.783 127.395 127.395C127.783 127.008 128 126.483 128 125.936V72.2581C128 71.7105 127.783 71.1854 127.395 70.7982C127.008 70.4111 126.483 70.1936 125.936 70.1936ZM123.871 74.3226V115.613H115.613V74.3226H123.871ZM111.484 82.5807V115.613H103.226V82.5807H111.484ZM99.0968 90.8387V115.613H90.8387V90.8387H99.0968ZM99.0968 119.742V123.871H90.8387V119.742H99.0968ZM86.7097 99.0968V115.613H78.4516V99.0968H86.7097ZM78.4516 119.742H86.7097V123.871H78.4516V119.742ZM103.226 123.871V119.742H111.484V123.871H103.226ZM115.613 123.871V119.742H123.871V123.871H115.613Z" fill="white"/>
</svg>
